C:\Users\r0593348\3dpredictsim\Results\Batchsim_tmt_linear\Pog_s1_tmt_bCst_d00_k2000_ig24_act_GRF.mot
nRows=30
nColumns=19

name C:\Users\r0593348\3dpredictsim\Results\Batchsim_tmt_linear\Pog_s1_tmt_bCst_d00_k2000_ig24_act_GRF.mot
datacolumns 19
datarows 30
range 0.5903512826 0.9327550264
endheader
time 	ground_force_vx	ground_force_vy	ground_force_vz	ground_force_px	ground_force_py	ground_force_pz	1_ground_force_vx	1_ground_force_vy	1_ground_force_vz	1_ground_force_px	1_ground_force_py	1_ground_force_pz	ground_torque_x	ground_torque_y	ground_torque_z	1_ground_torque_x	1_ground_torque_y	1_ground_torque_z
        0.5903512826	      107.0754810425	      431.2293918013	        1.9187053899	        0.3905187074	        0.0000000000	        0.0353508729	      -67.9877668301	       52.4400888190	      -17.0497617535	        0.9097443121	        0.0000000000	       -0.0503644618	        0.0000000000	        0.0000000000	        0.0000000000	        0.0000000000	        0.0000000000	        0.0000000000	
        0.6021583082	       75.2343220197	      331.4000370468	        7.5865390929	        0.3975961978	        0.0000000000	        0.0326226426	     -133.3298122397	      136.2320928964	      -48.3926337701	        0.9182556497	        0.0000000000	       -0.0484382747	        0.0000000000	        0.0000000000	        0.0000000000	        0.0000000000	        0.0000000000	        0.0000000000	
        0.6139653339	       42.4135874589	      223.1165706439	       13.7421679478	        0.4101075350	        0.0000000000	        0.0272738260	      -61.5996449920	      303.0923068191	      -19.1823078278	        0.9247318193	        0.0000000000	       -0.0466833760	        0.0000000000	        0.0000000000	        0.0000000000	        0.0000000000	        0.0000000000	        0.0000000000	
        0.6257723595	       27.1321730549	      168.3291778302	       13.6583666173	        0.4185992292	        0.0000000000	        0.0229977173	      -54.8867785596	      506.0368395917	        3.7544607793	        0.9298686532	        0.0000000000	       -0.0470716625	        0.0000000000	        0.0000000000	        0.0000000000	        0.0000000000	        0.0000000000	        0.0000000000	
        0.6375793852	       24.0201500791	      131.8205943359	       15.4489923987	        0.4189342128	        0.0000000000	        0.0232305463	      -96.6666557128	      733.6476063847	       14.4465979306	        0.9398906335	        0.0000000000	       -0.0495343842	        0.0000000000	        0.0000000000	        0.0000000000	        0.0000000000	        0.0000000000	        0.0000000000	
        0.6493864108	       15.6017055201	       86.0943569437	       14.2306984718	        0.4192906464	        0.0000000000	        0.0233301289	     -123.3971205064	      856.6499578593	       20.8050491692	        0.9467320503	        0.0000000000	       -0.0511146346	        0.0000000000	        0.0000000000	        0.0000000000	        0.0000000000	        0.0000000000	        0.0000000000	
        0.6611934365	        1.0647126011	       34.9628593418	        7.5387139970	        0.4187972902	        0.0000000000	        0.0232592100	     -128.7612461463	      879.7440180783	       20.8521467537	        0.9512129945	        0.0000000000	       -0.0520401616	        0.0000000000	        0.0000000000	        0.0000000000	        0.0000000000	        0.0000000000	        0.0000000000	
        0.6730004621	        0.2942358725	       -0.3005176170	       -0.0111378083	        0.0000000000	        0.0000000000	        0.0000000000	     -120.4984780715	      860.6134294675	       20.1495679534	        0.9549291038	        0.0000000000	       -0.0525478423	        0.0000000000	        0.0000000000	        0.0000000000	        0.0000000000	        0.0000000000	        0.0000000000	
        0.6848074878	        0.0012845833	       -0.0010479499	        0.0000737413	        0.0000000000	        0.0000000000	        0.0000000000	     -106.8927482468	      823.9260875397	       19.5909316055	        0.9588816711	        0.0000000000	       -0.0527148890	        0.0000000000	        0.0000000000	        0.0000000000	        0.0000000000	        0.0000000000	        0.0000000000	
        0.6966145134	        0.0016011446	       -0.0011196062	        0.0001167975	        0.0000000000	        0.0000000000	        0.0000000000	      -93.7804160473	      782.6221132780	       19.1181177374	        0.9633812398	        0.0000000000	       -0.0526658948	        0.0000000000	        0.0000000000	        0.0000000000	        0.0000000000	        0.0000000000	        0.0000000000	
        0.7084215391	        0.0195985126	       -0.0122082611	        0.0015437803	        0.0000000000	        0.0000000000	        0.0000000000	      -84.2477400167	      747.7308969598	       18.9064573236	        0.9687156274	        0.0000000000	       -0.0524166612	        0.0000000000	        0.0000000000	        0.0000000000	        0.0000000000	        0.0000000000	        0.0000000000	
        0.7202285647	       -0.1333335884	        0.0759114624	       -0.0109199590	        0.0000000000	        0.0000000000	        0.0000000000	      -74.8535473348	      716.7501301574	       18.9576012933	        0.9740752631	        0.0000000000	       -0.0520692195	        0.0000000000	        0.0000000000	        0.0000000000	        0.0000000000	        0.0000000000	        0.0000000000	
        0.7320355904	       -0.1302744783	        0.0696808977	       -0.0103250463	        0.0000000000	        0.0000000000	        0.0000000000	      -65.2237622722	      686.8867043428	       19.1688286440	        0.9789734631	        0.0000000000	       -0.0517874680	        0.0000000000	        0.0000000000	        0.0000000000	        0.0000000000	        0.0000000000	        0.0000000000	
        0.7438426160	       -0.0759906934	        0.0386219716	       -0.0059413375	        0.0000000000	        0.0000000000	        0.0000000000	      -56.1689001174	      660.6198938878	       19.5758461067	        0.9836172910	        0.0000000000	       -0.0515832259	        0.0000000000	        0.0000000000	        0.0000000000	        0.0000000000	        0.0000000000	        0.0000000000	
        0.7556496417	       -0.0495453802	        0.0241396848	       -0.0038360495	        0.0000000000	        0.0000000000	        0.0000000000	      -48.0367234119	      638.9278578610	       20.0106557085	        0.9882213781	        0.0000000000	       -0.0514299564	        0.0000000000	        0.0000000000	        0.0000000000	        0.0000000000	        0.0000000000	        0.0000000000	
        0.7674566673	       -0.0397980712	        0.0187119068	       -0.0030597363	        0.0000000000	        0.0000000000	        0.0000000000	      -40.7949980875	      621.0886741276	       20.2318199631	        0.9928111170	        0.0000000000	       -0.0513009653	        0.0000000000	        0.0000000000	        0.0000000000	        0.0000000000	        0.0000000000	        0.0000000000	
        0.7792636930	       -0.0396340222	        0.0180765996	       -0.0030000803	        0.0000000000	        0.0000000000	        0.0000000000	      -33.9526218096	      607.8240744715	       20.3757115003	        0.9979733349	        0.0000000000	       -0.0511321673	        0.0000000000	        0.0000000000	        0.0000000000	        0.0000000000	        0.0000000000	        0.0000000000	
        0.7910707186	       -0.0478839259	        0.0212636034	       -0.0035502423	        0.0000000000	        0.0000000000	        0.0000000000	      -28.7136927692	      599.0131306214	       20.3453450394	        1.0038890605	        0.0000000000	       -0.0508664834	        0.0000000000	        0.0000000000	        0.0000000000	        0.0000000000	        0.0000000000	        0.0000000000	
        0.8028777443	       -0.0683925083	        0.0296286829	       -0.0049324390	        0.0000000000	        0.0000000000	        0.0000000000	      -24.4794579029	      593.4733797978	       19.9337633288	        1.0102524690	        0.0000000000	       -0.0505065728	        0.0000000000	        0.0000000000	        0.0000000000	        0.0000000000	        0.0000000000	        0.0000000000	
        0.8146847699	       -0.1105056370	        0.0467923989	       -0.0076711457	        0.0000000000	        0.0000000000	        0.0000000000	      -21.1279569440	      590.2982943204	       19.4977595409	        1.0168947932	        0.0000000000	       -0.0500582001	        0.0000000000	        0.0000000000	        0.0000000000	        0.0000000000	        0.0000000000	        0.0000000000	
        0.8264917956	       -0.1911284277	        0.0792803830	       -0.0126883190	        0.0000000000	        0.0000000000	        0.0000000000	      -18.6774114897	      588.9860734644	       18.9508742295	        1.0236078300	        0.0000000000	       -0.0495494549	        0.0000000000	        0.0000000000	        0.0000000000	        0.0000000000	        0.0000000000	        0.0000000000	
        0.8382988212	       -0.3336199692	        0.1358987151	       -0.0211326430	        0.0000000000	        0.0000000000	        0.0000000000	      -16.4781897380	      588.2896033584	       18.8064570999	        1.0301794409	        0.0000000000	       -0.0490128106	        0.0000000000	        0.0000000000	        0.0000000000	        0.0000000000	        0.0000000000	        0.0000000000	
        0.8501058469	       -0.5591010389	        0.2242082671	       -0.0338204980	        0.0000000000	        0.0000000000	        0.0000000000	      -14.1732858331	      586.8287000576	       18.9334483595	        1.0365483104	        0.0000000000	       -0.0484693191	        0.0000000000	        0.0000000000	        0.0000000000	        0.0000000000	        0.0000000000	        0.0000000000	
        0.8619128725	       -0.8689158652	        0.3438891951	       -0.0503601494	        0.0000000000	        0.0000000000	        0.0000000000	      -11.7611667223	      584.4131134581	       19.0714252914	        1.0427478547	        0.0000000000	       -0.0479225351	        0.0000000000	        0.0000000000	        0.0000000000	        0.0000000000	        0.0000000000	        0.0000000000	
        0.8737198982	       -1.2264624601	        0.4802562847	       -0.0682533304	        0.0000000000	        0.0000000000	        0.0000000000	       -9.3068706585	      580.8815617586	       19.2008140309	        1.0487614228	        0.0000000000	       -0.0473759536	        0.0000000000	        0.0000000000	        0.0000000000	        0.0000000000	        0.0000000000	        0.0000000000	
        0.8855269238	       -1.5676433675	        0.6087468496	       -0.0835406223	        0.0000000000	        0.0000000000	        0.0000000000	       -6.7355833257	      576.7169976590	       18.9670740310	        1.0546311468	        0.0000000000	       -0.0468270088	        0.0000000000	        0.0000000000	        0.0000000000	        0.0000000000	        0.0000000000	        0.0000000000	
        0.8973339495	       -1.8342760188	        0.7076609715	       -0.0923501051	        0.0000000000	        0.0000000000	        0.0000000000	       -4.2635170428	      571.7873761124	       18.1815447118	        1.0603545452	        0.0000000000	       -0.0462745519	        0.0000000000	        0.0000000000	        0.0000000000	        0.0000000000	        0.0000000000	        0.0000000000	
        0.9091409751	       -2.0051750808	        0.7695532860	       -0.0930393965	        0.0000000000	        0.0000000000	        0.0000000000	       -1.7389749074	      568.1467420466	       16.8395340873	        1.0660932560	        0.0000000000	       -0.0456892815	        0.0000000000	        0.0000000000	        0.0000000000	        0.0000000000	        0.0000000000	        0.0000000000	
        0.9209480008	       -2.0834621669	        0.7960565112	       -0.0853009739	        0.0000000000	        0.0000000000	        0.0000000000	        0.8273276102	      566.3326408567	       15.2187774580	        1.0717858010	        0.0000000000	       -0.0450710626	        0.0000000000	        0.0000000000	        0.0000000000	        0.0000000000	        0.0000000000	        0.0000000000	
        0.9327550264	       -2.0522655386	        0.7813574972	       -0.0698853762	        0.0000000000	        0.0000000000	        0.0000000000	        3.4700556011	      567.0711783581	       13.8098069342	        1.0773088962	        0.0000000000	       -0.0444306669	        0.0000000000	        0.0000000000	        0.0000000000	        0.0000000000	        0.0000000000	        0.0000000000	
